<?xml version="1.0" encoding="UTF-8" standalone="no"?><!-- Generator: Gravitdesign.com --><svg xmlns="http://www.w3.org/2000/svg" xmlns:xlink="http://www.w3.org/1999/xlink" style="isolation:isolate" viewBox="0 0 512 512" width="512pt" height="512pt"><defs><clipPath id="_clipPath_PIAHVDw2f8TGrggqBJWgVQrWpP5eBAPA"><rect width="512" height="512"/></clipPath></defs><g clip-path="url(#_clipPath_PIAHVDw2f8TGrggqBJWgVQrWpP5eBAPA)"><g><g><path d=" M 312.363 429.652 L 312.363 284.535 L 382.188 284.535 L 382.188 284.535 Q 401.523 284.438 415.537 287.904 L 415.537 287.904 L 415.537 287.904 Q 429.551 291.371 438.633 297.816 L 438.633 297.816 L 438.633 297.816 Q 447.715 304.262 452.061 313.295 L 452.061 313.295 L 452.061 313.295 Q 456.406 322.328 456.406 333.363 L 456.406 333.363 L 456.406 333.363 Q 456.406 343.031 452.354 351.869 L 452.354 351.869 L 452.354 351.869 Q 448.301 360.707 439.854 367.445 L 439.854 367.445 L 439.854 367.445 Q 431.406 374.184 418.369 378.188 L 418.369 378.188 L 418.369 378.188 Q 405.332 382.191 387.363 382.191 L 387.363 382.191 L 368.809 382.191 L 368.809 429.652 L 312.363 429.652 L 312.363 429.652 Z  M 368.809 305.824 L 368.809 360.902 L 368.809 360.902 Q 375.547 360.805 380.82 358.803 L 380.82 358.803 L 380.82 358.803 Q 386.094 356.801 389.707 353.236 L 389.707 353.236 L 389.707 353.236 Q 393.32 349.672 395.225 344.643 L 395.225 344.643 L 395.225 344.643 Q 397.129 339.613 397.129 333.363 L 397.129 333.363 L 397.129 333.363 Q 397.129 327.211 395.176 322.23 L 395.176 322.23 L 395.176 322.23 Q 393.223 317.25 389.561 313.686 L 389.561 313.686 L 389.561 313.686 Q 385.898 310.121 380.674 308.07 L 380.674 308.07 L 380.674 308.07 Q 375.449 306.02 368.809 305.824 L 368.809 305.824 L 368.809 305.824 Z " fill="rgb(0,0,0)"/><path d=" M 193.416 322.652 L 193.416 306.344 L 226.424 276.656 L 226.424 276.656 Q 236.189 267.867 242.488 260.738 L 242.488 260.738 L 242.488 260.738 Q 248.787 253.609 252.449 247.555 L 252.449 247.555 L 252.449 247.555 Q 256.111 241.5 257.527 236.275 L 257.527 236.275 L 257.527 236.275 Q 258.943 231.051 258.943 226.168 L 258.943 226.168 L 258.943 226.168 Q 258.943 220.211 257.186 215.328 L 257.186 215.328 L 257.186 215.328 Q 255.428 210.445 252.059 206.979 L 252.059 206.979 L 252.059 206.979 Q 248.689 203.512 243.855 201.656 L 243.855 201.656 L 243.855 201.656 Q 239.021 199.801 232.771 199.801 L 232.771 199.801 L 232.771 199.801 Q 224.08 199.801 215.584 203.316 L 215.584 203.316 L 215.584 203.316 C 209.7 206.416 204.182 208.987 199 211 L 198.816 211.029 L 188.826 192 L 188.826 192 C 192.466 191.235 196.268 189.923 200.203 188.033 L 200.203 188.033 L 200.203 188.033 Q 206.893 184.273 215.193 181.393 L 215.193 181.393 L 215.193 181.393 Q 223.494 178.512 233.016 176.852 L 233.016 176.852 L 233.016 176.852 Q 242.537 175.191 252.986 175.191 L 252.986 175.191 L 252.986 175.191 Q 267.342 175.191 278.475 178.414 L 278.475 178.414 L 278.475 178.414 Q 289.607 181.637 297.273 187.301 L 297.273 187.301 L 297.273 187.301 Q 304.939 192.965 308.895 200.68 L 308.895 200.68 L 308.895 200.68 Q 312.85 208.395 312.85 217.281 L 312.85 217.281 L 312.85 217.281 Q 312.85 226.07 308.846 234.957 L 308.846 234.957 L 308.846 234.957 Q 304.842 243.844 296.688 252.633 L 296.688 252.633 L 296.688 252.633 Q 288.533 261.422 276.131 270.016 L 276.131 270.016 L 276.131 270.016 Q 263.729 278.609 247.029 286.715 L 247.029 286.715 L 276.033 284.371 L 313.338 284.371 L 313.338 322.652 L 193.807 322.652 L 194.002 322.457 L 193.416 322.652 Z " fill="rgb(0,0,0)"/><path d=" M 58.064 136.811 L 58.064 136.811 L 58.064 136.811 Q 58.064 125.424 61.019 114.843 L 61.019 114.843 L 61.019 114.843 Q 63.973 104.262 69.666 95.131 L 69.666 95.131 L 69.666 95.131 Q 75.359 86 83.631 78.48 L 83.631 78.48 L 83.631 78.48 Q 91.902 70.961 102.483 65.59 L 102.483 65.59 L 102.483 65.59 Q 113.064 60.219 125.848 57.265 L 125.848 57.265 L 125.848 57.265 Q 138.631 54.311 153.348 54.311 L 153.348 54.311 L 153.348 54.311 Q 162.801 54.311 171.448 55.492 L 171.448 55.492 L 171.448 55.492 Q 180.096 56.674 187.723 58.769 L 187.723 58.769 L 187.723 58.769 Q 195.35 60.863 201.849 63.603 L 201.849 63.603 L 201.849 63.603 Q 208.348 66.342 213.611 69.35 L 213.611 69.35 L 204.373 87.396 L 204.373 87.396 Q 198.357 84.496 190.677 82.509 L 190.677 82.509 L 190.677 82.509 Q 182.996 80.521 174.725 80.521 L 174.725 80.521 L 174.725 80.521 Q 163.66 80.521 154.207 84.496 L 154.207 84.496 L 154.207 84.496 Q 144.754 88.471 137.879 95.775 L 137.879 95.775 L 137.879 95.775 Q 131.004 103.08 127.083 113.446 L 127.083 113.446 L 127.083 113.446 Q 123.162 123.813 123.162 136.703 L 123.162 136.703 L 123.162 136.703 Q 123.162 149.486 127.029 159.853 L 127.029 159.853 L 127.029 159.853 Q 130.896 170.219 137.718 177.577 L 137.718 177.577 L 137.718 177.577 Q 144.539 184.936 153.938 188.964 L 153.938 188.964 L 153.938 188.964 Q 163.338 192.992 174.295 192.992 L 174.295 192.992 L 174.295 192.992 Q 182.029 192.992 189.764 191.112 L 189.764 191.112 L 189.764 191.112 Q 197.498 189.232 203.943 186.117 L 203.943 186.117 L 213.182 204.164 L 213.182 204.164 Q 207.918 207.279 201.473 209.965 L 201.473 209.965 L 201.473 209.965 Q 200.166 210.509 198.816 211.029 C 195.274 212.393 191.505 213.632 187.508 214.745 L 187.508 214.745 L 187.508 214.745 Q 179.988 216.84 171.395 218.021 L 171.395 218.021 L 171.395 218.021 Q 162.801 219.203 153.348 219.203 L 153.348 219.203 L 153.348 219.203 Q 131.326 219.203 113.655 212.704 L 113.655 212.704 L 113.655 212.704 Q 95.984 206.205 83.631 194.979 L 83.631 194.979 L 83.631 194.979 Q 71.277 183.754 64.671 168.769 L 64.671 168.769 L 64.671 168.769 Q 58.064 153.783 58.064 136.811 Z " fill="rgb(0,0,0)"/></g></g></g></svg>